<svg width="186" height="42" viewBox="0 0 186 42" fill="none" xmlns="http://www.w3.org/2000/svg">
<g clip-path="url(#clip0_7319_6117)">
<path d="M31.3315 40H22.0078V36.109H31.3315C32.1843 36.109 33.0021 35.7679 33.6051 35.1607C34.208 34.5534 34.5468 33.7298 34.5468 32.8711V27.5768C34.5504 26.0432 35.0432 24.5513 35.9525 23.3211L38.0961 20.4429L36.3259 18.6584C35.6683 18.0004 35.147 17.2175 34.7923 16.355C34.4375 15.4925 34.2563 14.5677 34.2592 13.6342V9.13614C34.2592 8.27738 33.9205 7.45379 33.3175 6.84656C32.7145 6.23932 31.8967 5.89818 31.044 5.89818H22V2H31.033C32.911 2.00048 34.712 2.75148 36.0406 4.08811C37.3692 5.42474 38.1167 7.23771 38.1191 9.12894V13.6263C38.1179 14.0486 38.2 14.4668 38.3607 14.8569C38.5214 15.2469 38.7574 15.6009 39.055 15.8983L40.9236 17.7897C41.5484 18.4239 41.9269 19.2625 41.9905 20.1535C42.054 21.0446 41.7985 21.9291 41.2701 22.6467L39.0409 25.6491C38.6294 26.2061 38.4065 26.8815 38.4051 27.5757V32.8711C38.4027 34.7601 37.6569 36.5712 36.331 37.9074C35.0051 39.2437 33.2073 39.9962 31.3315 40Z" fill="#00B0CB"/>
<path d="M29 13H12V17H29V13Z" fill="#00B0CB"/>
<path d="M29 25H2V29H29V25Z" fill="#00B0CB"/>
<path d="M57.551 7.48628C57.7989 7.94072 58.0812 8.50533 58.3979 9.18012C58.7284 9.84112 59.0658 10.5641 59.4101 11.3491C59.7681 12.1202 60.1193 12.9121 60.4636 13.7246C60.8078 14.537 61.1315 15.3013 61.4344 16.0174C61.7374 15.3013 62.061 14.537 62.4053 13.7246C62.7496 12.9121 63.0938 12.1202 63.4381 11.3491C63.7962 10.5641 64.1335 9.84112 64.4503 9.18012C64.7808 8.50533 65.07 7.94072 65.3179 7.48628H68.2511C68.3888 8.43648 68.5127 9.50373 68.6229 10.688C68.7468 11.8586 68.8501 13.0842 68.9327 14.3649C69.0291 15.6318 69.1118 16.9057 69.1806 18.1864C69.2633 19.4671 69.3321 20.672 69.3872 21.8013H66.2474C66.2061 20.4104 66.151 18.8956 66.0821 17.2568C66.0133 15.6181 65.91 13.9656 65.7723 12.2993C65.5244 12.8776 65.249 13.518 64.946 14.2203C64.6431 14.9226 64.3401 15.625 64.0371 16.3273C63.748 17.0296 63.4656 17.7044 63.1902 18.3516C62.9148 18.9851 62.6807 19.529 62.4879 19.9835H60.2363C60.0435 19.529 59.8094 18.9851 59.534 18.3516C59.2586 17.7044 58.9694 17.0296 58.6664 16.3273C58.3772 15.625 58.0812 14.9226 57.7782 14.2203C57.4752 13.518 57.1998 12.8776 56.9519 12.2993C56.8142 13.9656 56.711 15.6181 56.6421 17.2568C56.5732 18.8956 56.5182 20.4104 56.4768 21.8013H53.337C53.3921 20.672 53.4541 19.4671 53.523 18.1864C53.6056 16.9057 53.6882 15.6318 53.7708 14.3649C53.8672 13.0842 53.9705 11.8586 54.0807 10.688C54.2046 9.50373 54.3354 8.43648 54.4732 7.48628H57.551ZM75.1599 21.8013H72.0821V10.9359H75.1599V21.8013ZM75.4491 7.79613C75.4491 8.36074 75.2632 8.8083 74.8914 9.1388C74.5333 9.45554 74.1064 9.6139 73.6107 9.6139C73.1149 9.6139 72.6811 9.45554 72.3093 9.1388C71.9512 8.8083 71.7722 8.36074 71.7722 7.79613C71.7722 7.23151 71.9512 6.79084 72.3093 6.47411C72.6811 6.1436 73.1149 5.97835 73.6107 5.97835C74.1064 5.97835 74.5333 6.1436 74.8914 6.47411C75.2632 6.79084 75.4491 7.23151 75.4491 7.79613ZM84.6012 13.6626C84.3258 13.5937 84.0022 13.5249 83.6304 13.456C83.2586 13.3734 82.8592 13.3321 82.4323 13.3321C82.2395 13.3321 82.0054 13.3527 81.73 13.3941C81.4683 13.4216 81.2686 13.456 81.1309 13.4973V21.8013H78.0531V11.5143C78.6039 11.3215 79.2512 11.1425 79.9948 10.9772C80.7522 10.7982 81.5923 10.7087 82.5149 10.7087C82.6802 10.7087 82.8798 10.7225 83.114 10.75C83.3481 10.7638 83.5822 10.7913 83.8163 10.8326C84.0504 10.8602 84.2845 10.9015 84.5186 10.9566C84.7527 10.9979 84.9524 11.053 85.1176 11.1218L84.6012 13.6626ZM96.7289 16.3479C96.7289 17.2017 96.6049 17.9867 96.3571 18.7028C96.1092 19.4051 95.7511 20.011 95.2829 20.5206C94.8147 21.0163 94.2501 21.4019 93.5891 21.6773C92.9418 21.9528 92.212 22.0905 91.3995 22.0905C90.6008 22.0905 89.8709 21.9528 89.2099 21.6773C88.5627 21.4019 88.0049 21.0163 87.5367 20.5206C87.0685 20.011 86.7036 19.4051 86.4419 18.7028C86.1803 17.9867 86.0494 17.2017 86.0494 16.3479C86.0494 15.4941 86.1803 14.7161 86.4419 14.0137C86.7173 13.3114 87.0892 12.7124 87.5574 12.2166C88.0394 11.7209 88.604 11.3353 89.2512 11.0599C89.9122 10.7844 90.6283 10.6467 91.3995 10.6467C92.1844 10.6467 92.9005 10.7844 93.5478 11.0599C94.2088 11.3353 94.7734 11.7209 95.2416 12.2166C95.7098 12.7124 96.0748 13.3114 96.3364 14.0137C96.5981 14.7161 96.7289 15.4941 96.7289 16.3479ZM93.5891 16.3479C93.5891 15.3977 93.3963 14.6541 93.0107 14.117C92.6389 13.5662 92.1018 13.2908 91.3995 13.2908C90.6972 13.2908 90.1532 13.5662 89.7676 14.117C89.382 14.6541 89.1892 15.3977 89.1892 16.3479C89.1892 17.2981 89.382 18.0555 89.7676 18.6202C90.1532 19.171 90.6972 19.4464 91.3995 19.4464C92.1018 19.4464 92.6389 19.171 93.0107 18.6202C93.3963 18.0555 93.5891 17.2981 93.5891 16.3479ZM102.232 19.591C102.797 19.591 103.196 19.5359 103.43 19.4258C103.664 19.3156 103.781 19.1021 103.781 18.7854C103.781 18.5375 103.63 18.3241 103.327 18.1451C103.024 17.9523 102.563 17.7388 101.943 17.5047C101.461 17.3257 101.02 17.1398 100.621 16.947C100.235 16.7542 99.9049 16.527 99.6295 16.2653C99.3541 15.9899 99.1406 15.6663 98.9892 15.2945C98.8377 14.9226 98.7619 14.4751 98.7619 13.9518C98.7619 12.9327 99.1406 12.1271 99.8981 11.535C100.655 10.9428 101.695 10.6467 103.017 10.6467C103.678 10.6467 104.312 10.7087 104.918 10.8326C105.524 10.9428 106.006 11.0667 106.364 11.2045L105.826 13.6006C105.468 13.4767 105.076 13.3665 104.649 13.2701C104.236 13.1737 103.768 13.1255 103.244 13.1255C102.28 13.1255 101.798 13.3941 101.798 13.9311C101.798 14.0551 101.819 14.1652 101.86 14.2616C101.902 14.358 101.984 14.4544 102.108 14.5508C102.232 14.6334 102.397 14.7298 102.604 14.84C102.824 14.9364 103.1 15.0466 103.43 15.1705C104.105 15.4184 104.663 15.6663 105.104 15.9142C105.544 16.1483 105.888 16.4099 106.136 16.6991C106.398 16.9745 106.577 17.2844 106.673 17.6286C106.784 17.9729 106.839 18.3723 106.839 18.8267C106.839 19.9009 106.432 20.7134 105.62 21.2642C104.821 21.815 103.685 22.0905 102.212 22.0905C101.248 22.0905 100.442 22.0078 99.7948 21.8426C99.1613 21.6773 98.7206 21.5396 98.4728 21.4295L98.9892 18.93C99.5125 19.1366 100.05 19.3018 100.6 19.4258C101.151 19.5359 101.695 19.591 102.232 19.591ZM113.477 22.0078C112.582 21.9941 111.852 21.8977 111.287 21.7186C110.736 21.5396 110.296 21.2917 109.965 20.975C109.648 20.6445 109.428 20.252 109.304 19.7976C109.194 19.3294 109.139 18.8061 109.139 18.2277V6.26754L112.217 5.77178V17.608C112.217 17.8834 112.237 18.1313 112.279 18.3516C112.32 18.572 112.396 18.7579 112.506 18.9094C112.63 19.0608 112.802 19.1848 113.022 19.2812C113.243 19.3776 113.539 19.4395 113.91 19.4671L113.477 22.0078ZM120.129 19.653C120.432 19.653 120.721 19.6461 120.997 19.6323C121.272 19.6186 121.493 19.5979 121.658 19.5704V17.2362C121.534 17.2086 121.348 17.1811 121.1 17.1535C120.852 17.126 120.625 17.1122 120.418 17.1122C120.129 17.1122 119.854 17.1329 119.592 17.1742C119.344 17.2017 119.124 17.2637 118.931 17.3601C118.738 17.4565 118.587 17.5873 118.477 17.7526C118.367 17.9178 118.311 18.1244 118.311 18.3723C118.311 18.8543 118.47 19.1917 118.787 19.3845C119.117 19.5635 119.565 19.653 120.129 19.653ZM119.881 10.6467C120.79 10.6467 121.548 10.75 122.154 10.9566C122.759 11.1631 123.241 11.4592 123.6 11.8448C123.971 12.2304 124.233 12.6986 124.384 13.2495C124.536 13.8003 124.612 14.4131 124.612 15.0879V21.4914C124.171 21.5878 123.558 21.698 122.773 21.8219C121.988 21.9596 121.038 22.0285 119.923 22.0285C119.22 22.0285 118.58 21.9665 118.002 21.8426C117.437 21.7186 116.948 21.519 116.535 21.2435C116.122 20.9544 115.805 20.5825 115.585 20.1281C115.364 19.6736 115.254 19.1159 115.254 18.4549C115.254 17.8214 115.378 17.2844 115.626 16.8437C115.888 16.403 116.232 16.0519 116.659 15.7902C117.086 15.5286 117.575 15.3427 118.126 15.2325C118.676 15.1085 119.248 15.0466 119.84 15.0466C120.239 15.0466 120.591 15.0672 120.893 15.1085C121.21 15.1361 121.465 15.1774 121.658 15.2325V14.9433C121.658 14.42 121.499 14 121.183 13.6832C120.866 13.3665 120.315 13.2081 119.53 13.2081C119.007 13.2081 118.49 13.2495 117.981 13.3321C117.471 13.4009 117.031 13.5042 116.659 13.6419L116.266 11.1631C116.445 11.1081 116.666 11.053 116.927 10.9979C117.203 10.929 117.499 10.874 117.816 10.8326C118.132 10.7776 118.463 10.7362 118.807 10.7087C119.165 10.6674 119.523 10.6467 119.881 10.6467ZM130.086 21.8013C129.384 20.4242 128.668 18.813 127.938 16.9676C127.222 15.1223 126.54 13.1117 125.893 10.9359H129.157C129.295 11.473 129.453 12.0583 129.632 12.6917C129.825 13.3114 130.018 13.9449 130.21 14.5921C130.417 15.2256 130.617 15.8453 130.809 16.4512C131.016 17.0571 131.216 17.608 131.408 18.1037C131.588 17.608 131.78 17.0571 131.987 16.4512C132.193 15.8453 132.393 15.2256 132.586 14.5921C132.792 13.9449 132.985 13.3114 133.164 12.6917C133.357 12.0583 133.522 11.473 133.66 10.9359H136.841C136.194 13.1117 135.505 15.1223 134.776 16.9676C134.059 18.813 133.35 20.4242 132.648 21.8013H130.086ZM146.525 16.9883C146.525 17.6906 146.442 18.3516 146.277 18.9713C146.126 19.591 145.85 20.135 145.451 20.6032C145.065 21.0576 144.535 21.4226 143.86 21.698C143.199 21.9596 142.359 22.0905 141.34 22.0905C140.404 22.0905 139.598 21.9803 138.923 21.76C138.249 21.5258 137.691 21.2573 137.25 20.9544L138.324 18.4549C138.724 18.689 139.151 18.8956 139.605 19.0746C140.06 19.2536 140.555 19.3431 141.092 19.3431C141.877 19.3431 142.442 19.1503 142.786 18.7648C143.13 18.3792 143.303 17.7319 143.303 16.823V7.48628H146.525V16.9883ZM159.586 16.3479C159.586 17.2017 159.462 17.9867 159.214 18.7028C158.966 19.4051 158.608 20.011 158.14 20.5206C157.672 21.0163 157.107 21.4019 156.446 21.6773C155.799 21.9528 155.069 22.0905 154.257 22.0905C153.458 22.0905 152.728 21.9528 152.067 21.6773C151.42 21.4019 150.862 21.0163 150.394 20.5206C149.926 20.011 149.561 19.4051 149.299 18.7028C149.038 17.9867 148.907 17.2017 148.907 16.3479C148.907 15.4941 149.038 14.7161 149.299 14.0137C149.575 13.3114 149.946 12.7124 150.415 12.2166C150.897 11.7209 151.461 11.3353 152.108 11.0599C152.769 10.7844 153.486 10.6467 154.257 10.6467C155.042 10.6467 155.758 10.7844 156.405 11.0599C157.066 11.3353 157.631 11.7209 158.099 12.2166C158.567 12.7124 158.932 13.3114 159.194 14.0137C159.455 14.7161 159.586 15.4941 159.586 16.3479ZM156.446 16.3479C156.446 15.3977 156.254 14.6541 155.868 14.117C155.496 13.5662 154.959 13.2908 154.257 13.2908C153.554 13.2908 153.01 13.5662 152.625 14.117C152.239 14.6541 152.046 15.3977 152.046 16.3479C152.046 17.2981 152.239 18.0555 152.625 18.6202C153.01 19.171 153.554 19.4464 154.257 19.4464C154.959 19.4464 155.496 19.171 155.868 18.6202C156.254 18.0555 156.446 17.2981 156.446 16.3479ZM164.642 21.8013C163.939 20.4242 163.223 18.813 162.494 16.9676C161.777 15.1223 161.096 13.1117 160.449 10.9359H163.712C163.85 11.473 164.008 12.0583 164.187 12.6917C164.38 13.3114 164.573 13.9449 164.766 14.5921C164.972 15.2256 165.172 15.8453 165.365 16.4512C165.571 17.0571 165.771 17.608 165.964 18.1037C166.143 17.608 166.336 17.0571 166.542 16.4512C166.749 15.8453 166.948 15.2256 167.141 14.5921C167.348 13.9449 167.541 13.3114 167.72 12.6917C167.912 12.0583 168.078 11.473 168.215 10.9359H171.397C170.749 13.1117 170.061 15.1223 169.331 16.9676C168.615 18.813 167.906 20.4242 167.203 21.8013H164.642ZM176.123 21.8013H173.045V10.9359H176.123V21.8013ZM176.412 7.79613C176.412 8.36074 176.226 8.8083 175.854 9.1388C175.496 9.45554 175.069 9.6139 174.574 9.6139C174.078 9.6139 173.644 9.45554 173.272 9.1388C172.914 8.8083 172.735 8.36074 172.735 7.79613C172.735 7.23151 172.914 6.79084 173.272 6.47411C173.644 6.1436 174.078 5.97835 174.574 5.97835C175.069 5.97835 175.496 6.1436 175.854 6.47411C176.226 6.79084 176.412 7.23151 176.412 7.79613ZM178.5 16.3686C178.5 15.5836 178.624 14.8469 178.871 14.1583C179.133 13.456 179.505 12.8501 179.987 12.3406C180.469 11.8173 181.054 11.4041 181.743 11.1012C182.431 10.7982 183.216 10.6467 184.098 10.6467C184.676 10.6467 185.206 10.7018 185.688 10.812C186.17 10.9084 186.638 11.053 187.093 11.2458L186.452 13.7039C186.163 13.5937 185.846 13.4973 185.502 13.4147C185.158 13.3321 184.772 13.2908 184.345 13.2908C183.437 13.2908 182.755 13.5731 182.3 14.1377C181.86 14.7023 181.639 15.4459 181.639 16.3686C181.639 17.3463 181.846 18.1037 182.259 18.6408C182.686 19.1779 183.423 19.4464 184.469 19.4464C184.841 19.4464 185.241 19.412 185.667 19.3431C186.094 19.2743 186.487 19.1641 186.845 19.0126L187.279 21.5327C186.921 21.6842 186.473 21.815 185.936 21.9252C185.399 22.0354 184.807 22.0905 184.16 22.0905C183.168 22.0905 182.314 21.9459 181.598 21.6567C180.882 21.3537 180.29 20.9475 179.822 20.4379C179.367 19.9284 179.03 19.3294 178.809 18.6408C178.603 17.9385 178.5 17.1811 178.5 16.3686ZM186.514 7.03183L183.106 9.90309L181.701 8.64304L184.635 5.29668L186.514 7.03183Z" fill="#F4F0FF"/>
<path d="M53.1012 37.7598V30.0322H57.5059V30.6901H53.8595V33.4109H57.0933V34.0688H53.8595V37.7598H53.1012ZM60.6273 31.8832C60.8652 31.8832 61.0883 31.9018 61.2964 31.939C61.512 31.9761 61.6607 32.0133 61.7424 32.0505L61.5975 32.6749C61.538 32.6452 61.4153 32.6155 61.2295 32.5857C61.0511 32.5486 60.8132 32.53 60.5158 32.53C60.2036 32.53 59.9509 32.5523 59.7576 32.5969C59.5717 32.6415 59.4491 32.6786 59.3896 32.7084V37.7598H58.6648V32.2623C58.8506 32.1806 59.1071 32.0988 59.4342 32.017C59.7613 31.9278 60.159 31.8832 60.6273 31.8832ZM67.7531 34.8828C67.7531 35.3363 67.6862 35.7489 67.5523 36.1206C67.426 36.4923 67.2438 36.8082 67.006 37.0684C66.7755 37.3286 66.5004 37.533 66.1808 37.6817C65.8611 37.823 65.508 37.8936 65.1214 37.8936C64.7349 37.8936 64.3818 37.823 64.0621 37.6817C63.7424 37.533 63.4637 37.3286 63.2258 37.0684C62.9953 36.8082 62.8132 36.4923 62.6794 36.1206C62.553 35.7489 62.4898 35.3363 62.4898 34.8828C62.4898 34.4293 62.553 34.0168 62.6794 33.6451C62.8132 33.2734 62.9953 32.9574 63.2258 32.6972C63.4637 32.4296 63.7424 32.2252 64.0621 32.0839C64.3818 31.9353 64.7349 31.8609 65.1214 31.8609C65.508 31.8609 65.8611 31.9353 66.1808 32.0839C66.5004 32.2252 66.7755 32.4296 67.006 32.6972C67.2438 32.9574 67.426 33.2734 67.5523 33.6451C67.6862 34.0168 67.7531 34.4293 67.7531 34.8828ZM66.9837 34.8828C66.9837 34.1617 66.8164 33.5893 66.4819 33.1656C66.1473 32.7344 65.6939 32.5188 65.1214 32.5188C64.549 32.5188 64.0956 32.7344 63.761 33.1656C63.4265 33.5893 63.2592 34.1617 63.2592 34.8828C63.2592 35.6039 63.4265 36.1763 63.761 36.6001C64.0956 37.0238 64.549 37.2357 65.1214 37.2357C65.6939 37.2357 66.1473 37.0238 66.4819 36.6001C66.8164 36.1763 66.9837 35.6039 66.9837 34.8828ZM69.3257 32.1954C69.5413 32.136 69.8312 32.0691 70.1955 31.9947C70.5597 31.9204 71.0058 31.8832 71.5336 31.8832C71.9722 31.8832 72.3365 31.9464 72.6264 32.0728C72.9237 32.1992 73.1579 32.3813 73.3289 32.6192C73.5073 32.8496 73.6337 33.1284 73.708 33.4555C73.7824 33.7826 73.8195 34.1431 73.8195 34.5371V37.7598H73.0947V34.7713C73.0947 34.3624 73.065 34.0168 73.0055 33.7343C72.9535 33.4518 72.8605 33.2213 72.7267 33.0429C72.6004 32.8645 72.4294 32.7381 72.2138 32.6638C72.0056 32.582 71.7417 32.5411 71.4221 32.5411C71.0801 32.5411 70.7828 32.5597 70.53 32.5969C70.2847 32.634 70.1248 32.6675 70.0505 32.6972V37.7598H69.3257V32.1954ZM76.3545 31.9947H78.6516V32.608H76.3545V35.6745C76.3545 36.0016 76.3806 36.2693 76.4326 36.4774C76.4921 36.6781 76.5738 36.8342 76.6779 36.9457C76.782 37.0573 76.9084 37.1316 77.0571 37.1688C77.2057 37.2059 77.3693 37.2245 77.5477 37.2245C77.8525 37.2245 78.0978 37.1911 78.2837 37.1242C78.4695 37.0498 78.6145 36.9829 78.7185 36.9234L78.897 37.5256C78.7929 37.5925 78.6107 37.6706 78.3506 37.7598C78.0904 37.8415 77.8079 37.8824 77.5031 37.8824C77.1463 37.8824 76.8452 37.8378 76.5999 37.7486C76.362 37.652 76.1687 37.5107 76.02 37.3249C75.8788 37.1316 75.7784 36.8937 75.7189 36.6112C75.6595 36.3287 75.6297 35.9942 75.6297 35.6076V30.2998L76.3545 30.166V31.9947ZM79.6409 34.8717C79.6409 34.3662 79.7116 33.9276 79.8528 33.5559C80.0015 33.1767 80.191 32.8608 80.4215 32.608C80.6594 32.3553 80.927 32.1694 81.2244 32.0505C81.5292 31.9241 81.8414 31.8609 82.161 31.8609C82.8673 31.8609 83.4285 32.0914 83.8448 32.5523C84.2686 33.0132 84.4804 33.7231 84.4804 34.6821C84.4804 34.7416 84.4767 34.801 84.4693 34.8605C84.4693 34.92 84.4656 34.9757 84.4581 35.0278H80.4103C80.4327 35.734 80.6073 36.2767 80.9344 36.6558C81.2615 37.035 81.7819 37.2245 82.4956 37.2245C82.8896 37.2245 83.2018 37.1874 83.4323 37.113C83.6627 37.0387 83.83 36.9755 83.934 36.9234L84.0679 37.5479C83.9638 37.6074 83.7668 37.678 83.4769 37.7598C83.1944 37.8415 82.8598 37.8824 82.4733 37.8824C81.9678 37.8824 81.5366 37.8081 81.1798 37.6594C80.8229 37.5107 80.5293 37.3026 80.2988 37.035C80.0684 36.7673 79.9011 36.4514 79.797 36.0871C79.693 35.7154 79.6409 35.3103 79.6409 34.8717ZM83.7333 34.4145C83.7185 33.8123 83.5772 33.344 83.3096 33.0095C83.042 32.6749 82.6628 32.5077 82.1722 32.5077C81.912 32.5077 81.6778 32.5597 81.4697 32.6638C81.269 32.7679 81.0906 32.9091 80.9344 33.0875C80.7858 33.2585 80.6668 33.4592 80.5776 33.6897C80.4958 33.9201 80.4475 34.1617 80.4327 34.4145H83.7333ZM86.0957 32.1954C86.3113 32.136 86.6012 32.0691 86.9655 31.9947C87.3297 31.9204 87.7758 31.8832 88.3036 31.8832C88.7422 31.8832 89.1064 31.9464 89.3964 32.0728C89.6937 32.1992 89.9279 32.3813 90.0989 32.6192C90.2773 32.8496 90.4037 33.1284 90.478 33.4555C90.5523 33.7826 90.5895 34.1431 90.5895 34.5371V37.7598H89.8647V34.7713C89.8647 34.3624 89.835 34.0168 89.7755 33.7343C89.7235 33.4518 89.6305 33.2213 89.4967 33.0429C89.3703 32.8645 89.1994 32.7381 88.9838 32.6638C88.7756 32.582 88.5117 32.5411 88.1921 32.5411C87.8501 32.5411 87.5527 32.5597 87.3 32.5969C87.0547 32.634 86.8948 32.6675 86.8205 32.6972V37.7598H86.0957V32.1954ZM97.0274 37.5814C96.8118 37.6557 96.5367 37.7263 96.2022 37.7932C95.8677 37.8601 95.4439 37.8936 94.931 37.8936C94.5072 37.8936 94.1207 37.8267 93.7713 37.6929C93.4293 37.5516 93.132 37.3509 92.8792 37.0907C92.6339 36.8305 92.4406 36.5146 92.2994 36.1429C92.1655 35.7712 92.0986 35.3512 92.0986 34.8828C92.0986 34.4442 92.1544 34.0428 92.2659 33.6785C92.3848 33.3068 92.5558 32.9872 92.7788 32.7195C93.0019 32.4519 93.2732 32.2438 93.5929 32.0951C93.92 31.9464 94.2917 31.8721 94.708 31.8721C95.0871 31.8721 95.4142 31.9278 95.6892 32.0393C95.9717 32.1434 96.1762 32.2438 96.3025 32.3404V29.2404L97.0274 29.1066V37.5814ZM96.3025 33.0429C96.2356 32.9909 96.1501 32.9351 96.0461 32.8756C95.9494 32.8162 95.8342 32.7604 95.7004 32.7084C95.5666 32.6563 95.4216 32.6155 95.2655 32.5857C95.1094 32.5486 94.9458 32.53 94.7749 32.53C94.418 32.53 94.117 32.5932 93.8716 32.7195C93.6337 32.8459 93.4405 33.0169 93.2918 33.2325C93.1431 33.4406 93.0353 33.6897 92.9684 33.9796C92.9015 34.2621 92.8681 34.5632 92.8681 34.8828C92.8681 35.6411 93.0576 36.2247 93.4367 36.6335C93.8159 37.035 94.3177 37.2357 94.9421 37.2357C95.299 37.2357 95.5852 37.2208 95.8007 37.1911C96.0238 37.1539 96.191 37.1167 96.3025 37.0796V33.0429ZM107.66 33.8904C107.66 34.552 107.556 35.1281 107.348 35.6188C107.14 36.1094 106.846 36.5183 106.467 36.8454C106.095 37.1725 105.649 37.4178 105.129 37.5814C104.609 37.7449 104.036 37.8267 103.412 37.8267C103.1 37.8267 102.772 37.8081 102.431 37.7709C102.089 37.7412 101.787 37.6929 101.527 37.626V30.1771C101.787 30.1028 102.089 30.0507 102.431 30.021C102.772 29.9838 103.1 29.9653 103.412 29.9653C104.036 29.9653 104.609 30.047 105.129 30.2106C105.649 30.3741 106.095 30.6194 106.467 30.9465C106.846 31.2736 107.14 31.6825 107.348 32.1731C107.556 32.6638 107.66 33.2362 107.66 33.8904ZM102.286 37.0907C102.33 37.0981 102.442 37.113 102.62 37.1353C102.806 37.1576 103.1 37.1688 103.501 37.1688C104.059 37.1688 104.545 37.0944 104.962 36.9457C105.378 36.7896 105.727 36.5703 106.01 36.2878C106.292 36.0053 106.504 35.6634 106.646 35.262C106.787 34.8531 106.857 34.3959 106.857 33.8904C106.857 33.3849 106.787 32.9314 106.646 32.53C106.504 32.1285 106.292 31.7866 106.01 31.5041C105.727 31.2216 105.378 31.006 104.962 30.8573C104.545 30.7012 104.059 30.6232 103.501 30.6232C103.1 30.6232 102.806 30.6343 102.62 30.6566C102.442 30.6789 102.33 30.6938 102.286 30.7012V37.0907ZM108.967 34.8717C108.967 34.3662 109.037 33.9276 109.178 33.5559C109.327 33.1767 109.517 32.8608 109.747 32.608C109.985 32.3553 110.253 32.1694 110.55 32.0505C110.855 31.9241 111.167 31.8609 111.487 31.8609C112.193 31.8609 112.754 32.0914 113.171 32.5523C113.594 33.0132 113.806 33.7231 113.806 34.6821C113.806 34.7416 113.802 34.801 113.795 34.8605C113.795 34.92 113.791 34.9757 113.784 35.0278H109.736C109.758 35.734 109.933 36.2767 110.26 36.6558C110.587 37.035 111.108 37.2245 111.821 37.2245C112.215 37.2245 112.527 37.1874 112.758 37.113C112.988 37.0387 113.156 36.9755 113.26 36.9234L113.394 37.5479C113.289 37.6074 113.092 37.678 112.803 37.7598C112.52 37.8415 112.186 37.8824 111.799 37.8824C111.293 37.8824 110.862 37.8081 110.505 37.6594C110.149 37.5107 109.855 37.3026 109.625 37.035C109.394 36.7673 109.227 36.4514 109.123 36.0871C109.019 35.7154 108.967 35.3103 108.967 34.8717ZM113.059 34.4145C113.044 33.8123 112.903 33.344 112.635 33.0095C112.368 32.6749 111.989 32.5077 111.498 32.5077C111.238 32.5077 111.004 32.5597 110.795 32.6638C110.595 32.7679 110.416 32.9091 110.26 33.0875C110.111 33.2585 109.993 33.4592 109.903 33.6897C109.822 33.9201 109.773 34.1617 109.758 34.4145H113.059ZM117.161 36.9792C117.317 36.6595 117.477 36.2953 117.64 35.8864C117.804 35.4701 117.96 35.0427 118.109 34.604C118.265 34.158 118.406 33.712 118.532 33.2659C118.666 32.8125 118.778 32.3887 118.867 31.9947H119.592C119.458 32.5225 119.309 33.0429 119.146 33.5559C118.982 34.0688 118.808 34.5706 118.622 35.0612C118.443 35.5519 118.254 36.0239 118.053 36.4774C117.86 36.9309 117.67 37.3583 117.484 37.7598H116.793C116.6 37.3583 116.406 36.9309 116.213 36.4774C116.02 36.0239 115.83 35.5519 115.644 35.0612C115.466 34.5706 115.295 34.0688 115.131 33.5559C114.968 33.0429 114.819 32.5225 114.685 31.9947H115.455C115.544 32.3887 115.652 32.8125 115.778 33.2659C115.912 33.712 116.053 34.158 116.202 34.604C116.358 35.0427 116.518 35.4701 116.681 35.8864C116.845 36.2953 117.005 36.6595 117.161 36.9792ZM120.433 34.8717C120.433 34.3662 120.504 33.9276 120.645 33.5559C120.794 33.1767 120.983 32.8608 121.214 32.608C121.452 32.3553 121.719 32.1694 122.017 32.0505C122.322 31.9241 122.634 31.8609 122.953 31.8609C123.66 31.8609 124.221 32.0914 124.637 32.5523C125.061 33.0132 125.273 33.7231 125.273 34.6821C125.273 34.7416 125.269 34.801 125.262 34.8605C125.262 34.92 125.258 34.9757 125.251 35.0278H121.203C121.225 35.734 121.4 36.2767 121.727 36.6558C122.054 37.035 122.574 37.2245 123.288 37.2245C123.682 37.2245 123.994 37.1874 124.225 37.113C124.455 37.0387 124.622 36.9755 124.726 36.9234L124.86 37.5479C124.756 37.6074 124.559 37.678 124.269 37.7598C123.987 37.8415 123.652 37.8824 123.266 37.8824C122.76 37.8824 122.329 37.8081 121.972 37.6594C121.615 37.5107 121.322 37.3026 121.091 37.035C120.861 36.7673 120.694 36.4514 120.589 36.0871C120.485 35.7154 120.433 35.3103 120.433 34.8717ZM124.526 34.4145C124.511 33.8123 124.37 33.344 124.102 33.0095C123.834 32.6749 123.455 32.5077 122.965 32.5077C122.704 32.5077 122.47 32.5597 122.262 32.6638C122.061 32.7679 121.883 32.9091 121.727 33.0875C121.578 33.2585 121.459 33.4592 121.37 33.6897C121.288 33.9201 121.24 34.1617 121.225 34.4145H124.526ZM128.349 37.8601C128.104 37.8527 127.888 37.8192 127.702 37.7598C127.524 37.7077 127.371 37.626 127.245 37.5144C127.126 37.3955 127.033 37.2468 126.966 37.0684C126.907 36.8826 126.877 36.6521 126.877 36.377V29.2404L127.602 29.1066V36.3547C127.602 36.5332 127.617 36.6781 127.646 36.7896C127.684 36.8937 127.736 36.9792 127.802 37.0461C127.869 37.1056 127.955 37.1502 128.059 37.1799C128.17 37.2097 128.301 37.2357 128.449 37.258L128.349 37.8601ZM134.648 34.8828C134.648 35.3363 134.581 35.7489 134.447 36.1206C134.321 36.4923 134.139 36.8082 133.901 37.0684C133.67 37.3286 133.395 37.533 133.076 37.6817C132.756 37.823 132.403 37.8936 132.016 37.8936C131.63 37.8936 131.277 37.823 130.957 37.6817C130.637 37.533 130.358 37.3286 130.121 37.0684C129.89 36.8082 129.708 36.4923 129.574 36.1206C129.448 35.7489 129.385 35.3363 129.385 34.8828C129.385 34.4293 129.448 34.0168 129.574 33.6451C129.708 33.2734 129.89 32.9574 130.121 32.6972C130.358 32.4296 130.637 32.2252 130.957 32.0839C131.277 31.9353 131.63 31.8609 132.016 31.8609C132.403 31.8609 132.756 31.9353 133.076 32.0839C133.395 32.2252 133.67 32.4296 133.901 32.6972C134.139 32.9574 134.321 33.2734 134.447 33.6451C134.581 34.0168 134.648 34.4293 134.648 34.8828ZM133.878 34.8828C133.878 34.1617 133.711 33.5893 133.377 33.1656C133.042 32.7344 132.589 32.5188 132.016 32.5188C131.444 32.5188 130.99 32.7344 130.656 33.1656C130.321 33.5893 130.154 34.1617 130.154 34.8828C130.154 35.6039 130.321 36.1763 130.656 36.6001C130.99 37.0238 131.444 37.2357 132.016 37.2357C132.589 37.2357 133.042 37.0238 133.377 36.6001C133.711 36.1763 133.878 35.6039 133.878 34.8828ZM136.945 36.7227C137.012 36.7748 137.094 36.8305 137.191 36.89C137.295 36.9495 137.414 37.0052 137.547 37.0573C137.681 37.1093 137.826 37.1539 137.982 37.1911C138.138 37.2208 138.302 37.2357 138.473 37.2357C138.83 37.2357 139.127 37.1762 139.365 37.0573C139.61 36.9309 139.807 36.7636 139.956 36.5555C140.105 36.3399 140.213 36.0908 140.279 35.8083C140.346 35.5184 140.38 35.2136 140.38 34.894C140.38 34.1357 140.19 33.5559 139.811 33.1544C139.432 32.7456 138.93 32.5411 138.306 32.5411C137.949 32.5411 137.659 32.5597 137.436 32.5969C137.22 32.6266 137.057 32.6601 136.945 32.6972V36.7227ZM136.945 39.8227H136.221V32.1954C136.436 32.1211 136.711 32.0505 137.046 31.9836C137.38 31.9167 137.804 31.8832 138.317 31.8832C138.741 31.8832 139.123 31.9538 139.465 32.0951C139.815 32.2289 140.112 32.4259 140.358 32.6861C140.61 32.9463 140.804 33.2622 140.937 33.6339C141.079 34.0056 141.149 34.4256 141.149 34.894C141.149 35.3326 141.09 35.7377 140.971 36.1094C140.859 36.4737 140.692 36.7896 140.469 37.0573C140.246 37.3174 139.971 37.5219 139.644 37.6706C139.324 37.8192 138.956 37.8936 138.54 37.8936C138.161 37.8936 137.83 37.8415 137.547 37.7375C137.272 37.626 137.072 37.5219 136.945 37.4252V39.8227ZM142.376 34.8717C142.376 34.3662 142.447 33.9276 142.588 33.5559C142.736 33.1767 142.926 32.8608 143.156 32.608C143.394 32.3553 143.662 32.1694 143.959 32.0505C144.264 31.9241 144.576 31.8609 144.896 31.8609C145.602 31.8609 146.164 32.0914 146.58 32.5523C147.004 33.0132 147.215 33.7231 147.215 34.6821C147.215 34.7416 147.212 34.801 147.204 34.8605C147.204 34.92 147.201 34.9757 147.193 35.0278H143.145C143.168 35.734 143.342 36.2767 143.669 36.6558C143.997 37.035 144.517 37.2245 145.231 37.2245C145.625 37.2245 145.937 37.1874 146.167 37.113C146.398 37.0387 146.565 36.9755 146.669 36.9234L146.803 37.5479C146.699 37.6074 146.502 37.678 146.212 37.7598C145.929 37.8415 145.595 37.8824 145.208 37.8824C144.703 37.8824 144.272 37.8081 143.915 37.6594C143.558 37.5107 143.264 37.3026 143.034 37.035C142.803 36.7673 142.636 36.4514 142.532 36.0871C142.428 35.7154 142.376 35.3103 142.376 34.8717ZM146.468 34.4145C146.453 33.8123 146.312 33.344 146.045 33.0095C145.777 32.6749 145.398 32.5077 144.907 32.5077C144.647 32.5077 144.413 32.5597 144.205 32.6638C144.004 32.7679 143.826 32.9091 143.669 33.0875C143.521 33.2585 143.402 33.4592 143.313 33.6897C143.231 33.9201 143.182 34.1617 143.168 34.4145H146.468ZM150.793 31.8832C151.031 31.8832 151.254 31.9018 151.462 31.939C151.678 31.9761 151.827 32.0133 151.908 32.0505L151.763 32.6749C151.704 32.6452 151.581 32.6155 151.395 32.5857C151.217 32.5486 150.979 32.53 150.682 32.53C150.369 32.53 150.117 32.5523 149.923 32.5969C149.738 32.6415 149.615 32.6786 149.555 32.7084V37.7598H148.831V32.2623C149.017 32.1806 149.273 32.0988 149.6 32.017C149.927 31.9278 150.325 31.8832 150.793 31.8832Z" fill="#F4F0FF"/>
</g>
<defs>
<clipPath id="clip0_7319_6117">
<rect width="185.495" height="42" fill="white"/>
</clipPath>
</defs>
</svg>
