<svg width="42" height="42" viewBox="0 0 42 42" fill="none" xmlns="http://www.w3.org/2000/svg">
<g clip-path="url(#clip0_47_2)">
<mask id="mask0_47_2" style="mask-type:luminance" maskUnits="userSpaceOnUse" x="0" y="0" width="186" height="42">
<path d="M185.495 0H0V42H185.495V0Z" fill="white"/>
</mask>
<g mask="url(#mask0_47_2)">
<path d="M31.3316 40H22.0079V36.1091H31.3316C32.1843 36.1091 33.0021 35.7679 33.6051 35.1607C34.2081 34.5534 34.5468 33.7299 34.5468 32.8711V27.5769C34.5505 26.0432 35.0432 24.5513 35.9525 23.3211L38.0961 20.443L36.3259 18.6585C35.6683 18.0005 35.1471 17.2175 34.7923 16.355C34.4376 15.4926 34.2564 14.5677 34.2593 13.6342V9.13614C34.2593 8.27738 33.9205 7.45379 33.3176 6.84656C32.7146 6.23932 31.8968 5.89818 31.044 5.89818H22V2H31.0331C32.911 2.00048 34.712 2.75149 36.0406 4.08811C37.3692 5.42474 38.1167 7.23771 38.1191 9.12894V13.6263C38.1179 14.0486 38.2001 14.4669 38.3607 14.8569C38.5214 15.2469 38.7574 15.6009 39.0551 15.8983L40.9236 17.7898C41.5484 18.4239 41.9269 19.2625 41.9905 20.1536C42.0541 21.0446 41.7985 21.9291 41.2702 22.6467L39.041 25.6492C38.6294 26.2061 38.4065 26.8815 38.4051 27.5757V32.8711C38.4027 34.7601 37.6569 36.5712 36.331 37.9075C35.0051 39.2437 33.2074 39.9962 31.3316 40Z" fill="#08C3FD"/>
<path d="M29 13H12V17H29V13Z" fill="#08C3FD"/>
<path d="M29 25H2.00003V29H29V25Z" fill="#08C3FD"/>
</g>
</g>
<defs>
<clipPath id="clip0_47_2">
<rect width="42" height="42" fill="white"/>
</clipPath>
</defs>
</svg>
